<?xml version="1.0" encoding="UTF-8"?>
<svg width="200" height="200" viewBox="0 0 200 200" fill="none" xmlns="http://www.w3.org/2000/svg">
    <rect width="200" height="200" fill="#E5E7EB"/>
    <path d="M100 50C88.9543 50 80 58.9543 80 70C80 81.0457 88.9543 90 100 90C111.046 90 120 81.0457 120 70C120 58.9543 111.046 50 100 50ZM100 83.3333C93.3333 83.3333 86.6667 80 83.3333 75C83.3333 65 116.667 65 116.667 75C113.333 80 106.667 83.3333 100 83.3333ZM150 150V158.333H50V150C50 138.333 55 128.333 66.6667 123.333C76.6667 118.333 90 116.667 100 116.667C110 116.667 123.333 118.333 133.333 123.333C145 128.333 150 138.333 150 150Z" fill="#9CA3AF"/>
</svg>
